<?xml version="1.0" encoding="UTF-8"?>
<svg id="outline" xmlns="http://www.w3.org/2000/svg" viewBox="0 0 708.54 174.34">
  <defs>
    <style>
      .cls-1, .cls-2 {
        fill: #ff9548;
      }

      .cls-3 {
        fill: #fff;
      }

      .cls-4 {
        fill: none;
        stroke: #693e36;
        stroke-linecap: round;
        stroke-width: 19px;
      }

      .cls-4, .cls-2 {
        stroke-miterlimit: 10;
      }

      .cls-5 {
        fill: #02305c;
      }

      .cls-6 {
        fill: #36100f;
      }

      .cls-7 {
        fill: #da584a;
      }

      .cls-2 {
        stroke: #653e3a;
        stroke-width: 14px;
      }

      .cls-8 {
        fill: #ffda78;
      }

      .cls-9 {
        fill: #54ba85;
      }

      .cls-10 {
        fill: #fccd00;
      }
    </style>
  </defs>
  <g>
    <path class="cls-5" d="m121.16,47.99c0-6.35.58-9.23,2.88-12.55,2.74-4.18,7.79-6.92,12.98-6.92,4.76,0,9.09,2.16,12.12,5.77,2.74,3.46,3.75,6.78,3.75,12.69v58.84c0,7.64-.72,10.82-3.46,14.42-2.88,3.75-7.5,5.91-12.4,5.91s-9.23-2.16-12.55-6.49l-25.1-32.16v20.19c0,6.35-.87,9.23-3.61,12.69-3.03,3.61-7.5,5.77-12.26,5.77s-9.66-2.31-12.69-6.2c-2.6-3.61-3.32-6.49-3.32-13.56v-60.86c0-10.24,6.63-17.02,16.59-17.02,4.62,0,8.22,1.88,11.83,6.35l25.24,31.01v-17.88Z"/>
    <path class="cls-5" d="m190.1,85.2c0,6.92,3.17,11.11,8.65,11.11s8.65-4.04,8.65-10.67v-38.36c0-7.07.58-9.23,3.46-12.69,3.03-3.75,7.5-6.06,12.26-6.06s9.52,2.31,12.4,5.77c3.03,3.61,3.75,6.49,3.75,15.14v34.18c0,12.98-3.17,22.35-10.1,30.14-7.79,8.94-19.04,14.13-30.43,14.13-12.84,0-25.1-6.35-32.74-16.73-5.91-8.08-7.79-14.86-7.79-27.55v-33.89c0-9.09.58-11.39,3.32-15,3.03-3.75,7.93-6.2,12.55-6.2,4.33,0,8.8,2.02,11.68,5.05,3.17,3.32,4.33,6.92,4.33,13.7v37.93Z"/>
    <path class="cls-5" d="m241.88,103.52c0-8.08,6.35-14.42,14.42-14.42,3.89,0,7.21,1.3,11.25,4.62,6.92,5.34,7.79,5.91,10.1,5.91,2.45,0,4.04-1.73,4.04-4.18,0-1.73-.72-2.88-2.45-4.04-.87-.58-1.3-.87-6.35-2.74-2.6-.87-5.19-1.73-7.79-2.74-13.99-4.9-20.91-13.99-20.91-27.4,0-18.75,14.42-31.59,35.34-31.59,17.31,0,30.86,9.23,30.86,21.06,0,7.64-5.19,13.12-12.4,13.12-4.33,0-7.79-1.44-13.12-5.48-3.32-2.74-4.9-3.46-6.63-3.46-2.02,0-3.75,1.73-3.75,3.75,0,2.88,2.02,4.18,9.52,6.63,8.22,2.45,16.01,6.35,20.48,10.1,5.91,4.9,9.66,13.56,9.66,22.64s-3.32,17.02-9.09,22.93c-6.49,6.49-15.14,9.66-26.97,9.66-20.48,0-36.2-10.67-36.2-24.37Z"/>
  </g>
  <g>
    <path class="cls-6" d="m89.41,157.79c-2.35,2.03-5.36,3.19-8.44,3.19-7.06,0-12.78-5.65-12.78-12.64s5.76-12.71,12.82-12.71c2.93,0,5.76,1.01,8.07,2.93,1.96,1.56,2.93,3.19,2.93,4.78,0,2.17-1.77,3.98-3.98,3.98-.94,0-1.96-.4-2.5-.98l-1.16-1.27c-.87-.94-2.14-1.45-3.44-1.45-2.64,0-4.74,2.06-4.74,4.71s2.1,4.71,4.71,4.71c1.3,0,2.61-.58,3.55-1.59l.83-.87c.65-.69,1.74-1.16,2.75-1.16,2.1,0,3.98,1.85,3.98,3.91,0,1.45-.91,2.97-2.61,4.45Z"/>
    <path class="cls-6" d="m106.32,135.63c7.06,0,12.75,5.65,12.75,12.64s-5.72,12.71-12.71,12.71-12.75-5.68-12.75-12.82,5.65-12.53,12.71-12.53Zm.04,17.45c2.61,0,4.74-2.17,4.74-4.78s-2.14-4.67-4.74-4.67-4.74,2.06-4.74,4.63,2.14,4.82,4.74,4.82Z"/>
    <path class="cls-6" d="m138.95,138.16c.62-1.27,2.03-2.14,3.51-2.14.98,0,2.06.43,2.75,1.09.69.65,1.01,1.34,1.23,2.64l2.75,15.57c.11.51.15.98.15,1.34,0,2.17-1.74,3.87-3.91,3.87-2.03,0-3.62-1.23-3.95-3.04l-.91-4.53-1.56,4.27c-.8,2.17-2.21,3.29-4.09,3.29s-3.22-1.01-4.06-3.26l-1.59-4.31-.65,3.84c-.4,2.32-1.92,3.73-3.98,3.73-2.35,0-4.02-1.81-4.02-4.34,0-.33.04-.65.07-.98l2.75-15.46c.4-2.32,1.85-3.73,3.91-3.73,1.7,0,3.29,1.05,3.98,2.68l3.58,8,4.02-8.55Z"/>
    <path class="cls-6" d="m159.55,155.94c0,1.52-.29,2.46-1.01,3.26-.76.83-1.92,1.34-2.97,1.34s-2.28-.51-2.97-1.27c-.76-.83-1.01-1.67-1.01-3.33v-14.95c0-2.03.18-2.75,1.01-3.66.72-.83,1.77-1.3,2.93-1.3s2.25.47,2.97,1.27c.8.91,1.05,1.74,1.05,3.69v14.95Z"/>
    <path class="cls-6" d="m183.31,157.79c-2.35,2.03-5.36,3.19-8.44,3.19-7.06,0-12.78-5.65-12.78-12.64s5.76-12.71,12.82-12.71c2.93,0,5.76,1.01,8.07,2.93,1.96,1.56,2.93,3.19,2.93,4.78,0,2.17-1.77,3.98-3.98,3.98-.94,0-1.96-.4-2.5-.98l-1.16-1.27c-.87-.94-2.14-1.45-3.44-1.45-2.64,0-4.74,2.06-4.74,4.71s2.1,4.71,4.71,4.71c1.3,0,2.61-.58,3.55-1.59l.83-.87c.65-.69,1.74-1.16,2.75-1.16,2.1,0,3.98,1.85,3.98,3.91,0,1.45-.91,2.97-2.61,4.45Z"/>
    <path class="cls-6" d="m187.51,154.86c0-2.03,1.59-3.62,3.62-3.62.98,0,1.81.33,2.82,1.16,1.74,1.34,1.96,1.48,2.53,1.48.62,0,1.01-.43,1.01-1.05,0-.43-.18-.72-.62-1.01-.22-.15-.33-.22-1.59-.69-.65-.22-1.3-.43-1.96-.69-3.51-1.23-5.25-3.51-5.25-6.88,0-4.71,3.62-7.93,8.87-7.93,4.35,0,7.75,2.32,7.75,5.29,0,1.92-1.3,3.29-3.11,3.29-1.09,0-1.96-.36-3.29-1.38-.83-.69-1.23-.87-1.67-.87-.51,0-.94.43-.94.94,0,.72.51,1.05,2.39,1.67,2.06.62,4.02,1.59,5.14,2.53,1.48,1.23,2.43,3.4,2.43,5.69s-.83,4.27-2.28,5.76c-1.63,1.63-3.8,2.43-6.77,2.43-5.14,0-9.09-2.68-9.09-6.12Z"/>
    <path class="cls-6" d="m226.91,160.98c-4.96,0-9.02-3.95-9.02-8.73,0-1.88.47-3,2.1-4.89-1.12-1.59-1.48-2.5-1.48-3.87,0-4.24,3.95-7.86,8.58-7.86,4.2,0,8.29,3.29,8.29,6.7,0,2.06-1.77,3.77-3.91,3.77-1.52,0-2.43-.54-3.44-2.1-.29-.47-.51-.62-.91-.62-.58,0-1.05.47-1.05,1.05s.22.8,1.12,1.19c1.16.54,1.59,1.23,1.59,2.61,0,1.09-.36,1.74-1.19,2.1l-1.3.54c-.33.11-.54.54-.54,1.05,0,.58.47,1.09,1.05,1.09s1.12-.36,1.59-1.01l1.56-2.25c.54-.8,1.96-1.45,3.08-1.45,2.06,0,4.06,1.81,4.06,3.62,0,.54-.22,1.38-.65,2.32.98,1.09,1.3,1.81,1.3,2.82,0,2.1-1.85,3.91-4.02,3.91-.87,0-1.52-.22-2.72-.98-1.74.76-2.68.98-4.09.98Z"/>
    <path class="cls-6" d="m252.98,160.54c-2.21,0-3.95-1.74-3.95-3.98,0-.69.18-1.41.51-2.1l7.57-16.04c.69-1.49,2.06-2.39,3.66-2.39s3.01.9,3.73,2.43l7.6,16.22c.33.62.47,1.3.47,1.92,0,2.17-1.81,3.95-4.02,3.95-1.85,0-2.93-.87-4.06-3.33h-7.39c-1.01,2.35-2.21,3.33-4.13,3.33Zm9.02-9.09l-1.23-2.9-1.23,2.9h2.46Z"/>
    <path class="cls-6" d="m288.07,140.92c0-1.59.15-2.32.72-3.15.69-1.05,1.96-1.74,3.26-1.74,1.2,0,2.28.54,3.04,1.45.69.87.94,1.7.94,3.19v14.77c0,1.92-.18,2.72-.87,3.62-.72.94-1.88,1.48-3.11,1.48s-2.32-.54-3.15-1.63l-6.3-8.08v5.07c0,1.59-.22,2.32-.91,3.19-.76.91-1.88,1.45-3.08,1.45s-2.43-.58-3.19-1.56c-.65-.91-.83-1.63-.83-3.4v-15.28c0-2.57,1.67-4.27,4.16-4.27,1.16,0,2.06.47,2.97,1.59l6.34,7.79v-4.49Z"/>
    <path class="cls-6" d="m307.26,155.94c0,1.52-.29,2.46-1.01,3.26-.76.83-1.92,1.34-2.97,1.34s-2.28-.51-2.97-1.27c-.76-.83-1.01-1.67-1.01-3.33v-14.95c0-2.03.18-2.75,1.01-3.66.72-.83,1.77-1.3,2.93-1.3s2.25.47,2.97,1.27c.8.91,1.05,1.74,1.05,3.69v14.95Z"/>
    <path class="cls-6" d="m327.79,138.16c.62-1.27,2.03-2.14,3.51-2.14.98,0,2.06.43,2.75,1.09.69.65,1.01,1.34,1.23,2.64l2.75,15.57c.11.51.15.98.15,1.34,0,2.17-1.74,3.87-3.91,3.87-2.03,0-3.62-1.23-3.95-3.04l-.91-4.53-1.56,4.27c-.8,2.17-2.21,3.29-4.09,3.29s-3.22-1.01-4.06-3.26l-1.59-4.31-.65,3.84c-.4,2.32-1.92,3.73-3.98,3.73-2.35,0-4.02-1.81-4.02-4.34,0-.33.04-.65.07-.98l2.75-15.46c.4-2.32,1.85-3.73,3.91-3.73,1.7,0,3.29,1.05,3.98,2.68l3.58,8,4.02-8.55Z"/>
    <path class="cls-6" d="m343.15,160.54c-2.21,0-3.95-1.74-3.95-3.98,0-.69.18-1.41.51-2.1l7.57-16.04c.69-1.49,2.06-2.39,3.66-2.39s3.01.9,3.73,2.43l7.6,16.22c.33.62.47,1.3.47,1.92,0,2.17-1.81,3.95-4.02,3.95-1.85,0-2.93-.87-4.06-3.33h-7.39c-1.01,2.35-2.21,3.33-4.13,3.33Zm9.02-9.09l-1.23-2.9-1.23,2.9h2.46Z"/>
    <path class="cls-6" d="m364.51,143.63c-1.38,0-2.28-.33-3-1.05-.72-.76-1.12-1.67-1.12-2.64,0-1.38.91-2.82,2.06-3.33.83-.36,1.16-.4,4.31-.4h8.04q2.25,0,2.72.07c1.92.25,3.26,1.74,3.26,3.62,0,1.05-.51,2.14-1.3,2.86-.62.58-1.63.87-3.08.87h-1.77v12.02c0,1.45-.18,2.25-.69,3.08-.72,1.16-1.92,1.81-3.29,1.81s-2.54-.62-3.3-1.67c-.54-.83-.69-1.52-.69-3.15v-12.09h-2.14Z"/>
    <path class="cls-6" d="m390.77,155.94c0,1.52-.29,2.46-1.01,3.26-.76.83-1.92,1.34-2.97,1.34s-2.28-.51-2.97-1.27c-.76-.83-1.01-1.67-1.01-3.33v-14.95c0-2.03.18-2.75,1.01-3.66.72-.83,1.77-1.3,2.93-1.3s2.24.47,2.97,1.27c.8.91,1.05,1.74,1.05,3.69v14.95Z"/>
    <path class="cls-6" d="m406.01,135.63c7.06,0,12.75,5.65,12.75,12.64s-5.72,12.71-12.71,12.71-12.75-5.68-12.75-12.82,5.65-12.53,12.71-12.53Zm.04,17.45c2.61,0,4.74-2.17,4.74-4.78s-2.14-4.67-4.74-4.67-4.74,2.06-4.74,4.63,2.14,4.82,4.74,4.82Z"/>
    <path class="cls-6" d="m434.8,140.92c0-1.59.14-2.32.72-3.15.69-1.05,1.96-1.74,3.26-1.74,1.19,0,2.28.54,3.04,1.45.69.87.94,1.7.94,3.19v14.77c0,1.92-.18,2.72-.87,3.62-.72.94-1.88,1.48-3.11,1.48s-2.32-.54-3.15-1.63l-6.3-8.08v5.07c0,1.59-.22,2.32-.91,3.19-.76.91-1.88,1.45-3.08,1.45s-2.43-.58-3.19-1.56c-.65-.91-.83-1.63-.83-3.4v-15.28c0-2.57,1.67-4.27,4.16-4.27,1.16,0,2.06.47,2.97,1.59l6.34,7.79v-4.49Z"/>
    <path class="cls-6" d="m455.59,154.86c0-2.03,1.59-3.62,3.62-3.62.98,0,1.81.33,2.82,1.16,1.74,1.34,1.96,1.48,2.54,1.48.62,0,1.01-.43,1.01-1.05,0-.43-.18-.72-.62-1.01-.22-.15-.33-.22-1.59-.69-.65-.22-1.3-.43-1.96-.69-3.51-1.23-5.25-3.51-5.25-6.88,0-4.71,3.62-7.93,8.87-7.93,4.34,0,7.75,2.32,7.75,5.29,0,1.92-1.3,3.29-3.11,3.29-1.09,0-1.96-.36-3.29-1.38-.83-.69-1.23-.87-1.67-.87-.51,0-.94.43-.94.94,0,.72.51,1.05,2.39,1.67,2.06.62,4.02,1.59,5.14,2.53,1.49,1.23,2.43,3.4,2.43,5.69s-.83,4.27-2.28,5.76c-1.63,1.63-3.8,2.43-6.77,2.43-5.14,0-9.09-2.68-9.09-6.12Z"/>
    <path class="cls-6" d="m488.14,135.63c7.06,0,12.75,5.65,12.75,12.64s-5.72,12.71-12.71,12.71-12.75-5.68-12.75-12.82,5.65-12.53,12.71-12.53Zm.04,17.45c2.61,0,4.74-2.17,4.74-4.78s-2.14-4.67-4.74-4.67-4.74,2.06-4.74,4.63,2.14,4.82,4.74,4.82Z"/>
    <path class="cls-6" d="m523.92,157.79c-2.35,2.03-5.36,3.19-8.44,3.19-7.06,0-12.78-5.65-12.78-12.64s5.76-12.71,12.82-12.71c2.93,0,5.76,1.01,8.08,2.93,1.96,1.56,2.93,3.19,2.93,4.78,0,2.17-1.77,3.98-3.98,3.98-.94,0-1.96-.4-2.5-.98l-1.16-1.27c-.87-.94-2.14-1.45-3.44-1.45-2.64,0-4.74,2.06-4.74,4.71s2.1,4.71,4.71,4.71c1.3,0,2.61-.58,3.55-1.59l.83-.87c.65-.69,1.74-1.16,2.75-1.16,2.1,0,3.98,1.85,3.98,3.91,0,1.45-.91,2.97-2.61,4.45Z"/>
    <path class="cls-6" d="m536.7,155.94c0,1.52-.29,2.46-1.01,3.26-.76.83-1.92,1.34-2.97,1.34s-2.28-.51-2.97-1.27c-.76-.83-1.01-1.67-1.01-3.33v-14.95c0-2.03.18-2.75,1.01-3.66.72-.83,1.77-1.3,2.93-1.3s2.24.47,2.97,1.27c.8.91,1.05,1.74,1.05,3.69v14.95Z"/>
    <path class="cls-6" d="m551.44,152.9c1.74,0,2.5.22,3.33.91.83.72,1.3,1.74,1.3,2.82s-.51,2.21-1.3,2.9c-.8.65-1.48.83-3.29.83h-6.19c-1.85,0-2.35-.07-3.04-.33-1.23-.51-2.03-1.48-2.28-2.9-.11-.51-.14-.72-.14-2.39v-13.11c0-2.03.04-2.28.36-3.04.33-.91,1.09-1.63,1.92-1.99.91-.36,1.09-.4,3.44-.4h4.78c2.28,0,2.5.04,3.04.18,1.67.43,2.75,1.81,2.75,3.48,0,1.16-.47,2.25-1.3,2.93-.72.62-1.56.87-3.04.87h-3.98v1.67h3.15c1.96,0,3.22,1.16,3.22,2.86,0,.91-.4,1.74-1.05,2.28-.62.47-1.2.62-2.46.62h-2.86v1.81h3.66Z"/>
    <path class="cls-6" d="m561.22,143.63c-1.38,0-2.28-.33-3-1.05-.72-.76-1.12-1.67-1.12-2.64,0-1.38.91-2.82,2.06-3.33.83-.36,1.16-.4,4.31-.4h8.04q2.24,0,2.71.07c1.92.25,3.26,1.74,3.26,3.62,0,1.05-.51,2.14-1.3,2.86-.62.58-1.63.87-3.08.87h-1.77v12.02c0,1.45-.18,2.25-.69,3.08-.72,1.16-1.92,1.81-3.29,1.81s-2.54-.62-3.3-1.67c-.54-.83-.69-1.52-.69-3.15v-12.09h-2.14Z"/>
    <path class="cls-6" d="m592.36,155.62c0,1.48-.18,2.25-.69,3.04-.69,1.16-2.03,1.88-3.33,1.88s-2.61-.72-3.33-1.85c-.51-.83-.69-1.52-.69-3.08v-5.36l-5.36-7.93c-.54-.76-.8-1.59-.8-2.43,0-2.14,1.77-3.87,3.95-3.87,1.38,0,2.64.69,3.51,1.88l2.79,3.73,2.93-3.84c.91-1.12,2.1-1.77,3.37-1.77,2.17,0,3.98,1.81,3.98,3.95,0,.8-.25,1.59-.72,2.32l-5.61,8.07v5.25Z"/>
  </g>
  <g>
    <g>
      <path class="cls-2" d="m406.93,115.46c-9.4,8.1-21.41,12.73-33.7,12.73-28.2,0-51.06-22.56-51.06-50.48s23-50.77,51.2-50.77c11.72,0,23,4.05,32.25,11.72,7.81,6.22,11.72,12.73,11.72,19.09,0,8.68-7.09,15.91-15.91,15.91-3.76,0-7.81-1.59-9.98-3.91l-4.63-5.06c-3.47-3.76-8.53-5.79-13.74-5.79-10.56,0-18.95,8.24-18.95,18.8s8.39,18.8,18.8,18.8c5.21,0,10.41-2.31,14.17-6.36l3.33-3.47c2.6-2.75,6.94-4.63,10.99-4.63,8.39,0,15.91,7.38,15.91,15.62,0,5.79-3.62,11.86-10.41,17.79Z"/>
      <path class="cls-2" d="m436.43,126.46c-8.82,0-15.77-6.94-15.77-15.91,0-2.75.72-5.64,2.03-8.39l30.23-64.07c2.75-5.93,8.25-9.55,14.61-9.55s12,3.62,14.9,9.69l30.37,64.8c1.3,2.46,1.88,5.21,1.88,7.67,0,8.68-7.23,15.77-16.05,15.77-7.38,0-11.72-3.47-16.2-13.31h-29.51c-4.05,9.4-8.82,13.31-16.49,13.31Zm36.01-36.3l-4.92-11.57-4.92,11.57h9.83Z"/>
      <path class="cls-2" d="m519.16,103.75c0-8.1,6.36-14.46,14.46-14.46,3.91,0,7.23,1.3,11.28,4.63,6.94,5.35,7.81,5.93,10.12,5.93,2.46,0,4.05-1.74,4.05-4.19,0-1.74-.72-2.89-2.46-4.05-.87-.58-1.3-.87-6.36-2.75-2.6-.87-5.21-1.74-7.81-2.75-14.03-4.92-20.97-14.03-20.97-27.48,0-18.8,14.46-31.68,35.44-31.68,17.36,0,30.95,9.26,30.95,21.12,0,7.67-5.21,13.16-12.44,13.16-4.34,0-7.81-1.45-13.16-5.5-3.33-2.75-4.92-3.47-6.65-3.47-2.02,0-3.76,1.74-3.76,3.76,0,2.89,2.03,4.19,9.55,6.65,8.24,2.46,16.05,6.36,20.54,10.12,5.93,4.92,9.69,13.6,9.69,22.71s-3.33,17.07-9.11,23c-6.51,6.51-15.19,9.69-27.05,9.69-20.54,0-36.3-10.7-36.3-24.44Z"/>
    </g>
    <g>
      <path class="cls-1" d="m406.93,115.56c-9.4,8.1-21.41,12.73-33.7,12.73-28.2,0-51.06-22.56-51.06-50.48s23-50.77,51.2-50.77c11.72,0,23,4.05,32.25,11.72,7.81,6.22,11.72,12.73,11.72,19.09,0,8.68-7.09,15.91-15.91,15.91-3.76,0-7.81-1.59-9.98-3.91l-4.63-5.06c-3.47-3.76-8.53-5.79-13.74-5.79-10.56,0-18.95,8.24-18.95,18.8s8.39,18.8,18.8,18.8c5.21,0,10.41-2.31,14.17-6.36l3.33-3.47c2.6-2.75,6.94-4.63,10.99-4.63,8.39,0,15.91,7.38,15.91,15.62,0,5.79-3.62,11.86-10.41,17.79Z"/>
      <path class="cls-1" d="m436.43,126.55c-8.82,0-15.77-6.94-15.77-15.91,0-2.75.72-5.64,2.03-8.39l30.23-64.07c2.75-5.93,8.25-9.55,14.61-9.55s12,3.62,14.9,9.69l30.37,64.8c1.3,2.46,1.88,5.21,1.88,7.67,0,8.68-7.23,15.77-16.05,15.77-7.38,0-11.72-3.47-16.2-13.31h-29.51c-4.05,9.4-8.82,13.31-16.49,13.31Zm36.01-36.3l-4.92-11.57-4.92,11.57h9.83Z"/>
      <path class="cls-1" d="m519.16,103.84c0-8.1,6.36-14.46,14.46-14.46,3.91,0,7.23,1.3,11.28,4.63,6.94,5.35,7.81,5.93,10.12,5.93,2.46,0,4.05-1.74,4.05-4.19,0-1.74-.72-2.89-2.46-4.05-.87-.58-1.3-.87-6.36-2.75-2.6-.87-5.21-1.74-7.81-2.75-14.03-4.92-20.97-14.03-20.97-27.48,0-18.8,14.46-31.68,35.44-31.68,17.36,0,30.95,9.26,30.95,21.12,0,7.67-5.21,13.16-12.44,13.16-4.34,0-7.81-1.45-13.16-5.5-3.33-2.75-4.92-3.47-6.65-3.47-2.02,0-3.76,1.74-3.76,3.76,0,2.89,2.03,4.19,9.55,6.65,8.24,2.46,16.05,6.36,20.54,10.12,5.93,4.92,9.69,13.6,9.69,22.71s-3.33,17.07-9.11,23c-6.51,6.51-15.19,9.69-27.05,9.69-20.54,0-36.3-10.7-36.3-24.44Z"/>
    </g>
  </g>
  <polygon class="cls-1" points="459.82 70.13 460.36 96.72 478.78 93.67 472.66 75.5 459.82 70.13"/>
  <rect class="cls-9" x="418.75" y="15.2" width="23.08" height="23.22" rx="1.13" ry="1.13" transform="translate(144.99 -296.41) rotate(45)"/>
  <rect class="cls-10" x="231.16" y="113.92" width="11.91" height="11.91" rx="1.25" ry="1.25" transform="translate(154.22 -132.55) rotate(45)"/>
  <rect class="cls-7" x="149.55" y="20.65" width="12.11" height="11.94" rx=".97" ry=".97" transform="translate(26.75 117.82) rotate(-45)"/>
  <path class="cls-4" d="m316.39,101.6c-.29,2.47-1.75,8.68-3.55,12.78-.64,1.45-4.06,7.52-7.28,7.91-4.76.57-8.09-9.51-3.22-16.47,3.85-5.48,11.88-8.45,17.32-7.78,2.8.34,8.18,1.5,10.51,6.65,2.85,6.31,3.2,15.59-9.19,20.69"/>
  <path class="cls-3" d="m320.86,102.13c-.87,5.95-2.19,12.01-5.31,17.21-3.2,5.6-9.54,10.92-15.84,5.8-4.31-3.79-5.28-9.86-4.35-15.14.9-5.59,5.08-10.54,9.83-13.23,13.09-7.89,30.57-3.01,31.34,14.03.48,5.63-2.63,11.79-7.13,15.02-2.14,1.65-4.43,2.81-6.7,3.73-2.3.93-4.93-.18-5.86-2.49-.91-2.26.14-4.83,2.36-5.8,2.97-1.29,5.89-3.17,7.16-5.99,1.2-2.65.72-5.75-.52-8.48-1.2-2.56-3.62-3.42-6.5-3.86-6.66-.79-16.5,5.11-14.16,13.02.16.62.42,1.15.63,1.46.2.32.35.27-.14.09-.26-.07-.52-.11-.85-.02-.29.08-.28.12-.17.05,3.26-2.59,4.76-6.9,5.94-10.87.53-1.82,1.08-3.97,1.37-5.75,1.09-5.71,9.38-4.57,8.91,1.21h0Z"/>
  <path class="cls-8" d="m467.56,105.38s17.58-10.55,5.73-24.88c-.94-1.14-3.46-3.05-7.03-3.8-7.66-1.61-13.65,4.12-14.47,4.93-1.9,1.88-3,3.85-3.61,5.18,1.01-.44,5.32-2.45,8.41-.19,4.63,3.38,6.1,13.82-1.58,20.05-.25.21-.59.3-.91.24-8-1.4-20.61-14.08-8.96-29.45,7.34-3.3,23.01-21.29,12.04-32.56-.12-.12-.06-.33.11-.36,7.82-1.42,13.59.28,17.2,5.81,3.1,4.47,3.58,13.18-.75,21.86,4.18-3.86,8.66-10.91,5.72-18.2-.07-.16.06-.35.23-.33,4.44.39,8.37,5.75,8.87,9.04.76,4.97.84,9.96-3.08,16.93,2.51-2.02,4.2-5.73,4.55-6.55.05-.11.21-.15.28-.04.98,1.65,2.95,5.28,1.56,11.46-2.22,9.36-11.12,15.28-14.5,17.12-6.15,3.36-9.82,3.75-9.82,3.75Z"/>
</svg>